<svg width="16" height="16" viewBox="0 0 16 16" fill="none" xmlns="http://www.w3.org/2000/svg">
<path d="M13 4C14.1 4 15 4.9 15 6C15 6.3 14.8 6.5 14.5 6.5C14.2 6.5 14 6.3 14 6C14 5.4 13.6 5 13 5C12.4 5 12 5.4 12 6C12 6.6 12.4 7 13 7C14.1 7 14.9 7.8 15 8.9V10C15 11.1 14.1 12 13 12C11.9 12 11.1 11.2 11 10.1V9.5C11 9.2 11.2 9 11.5 9C11.7 9 11.9 9.2 12 9.4V10C12 10.6 12.4 11 13 11C13.5 11 13.9 10.6 14 10.1V9C14 8.5 13.6 8.1 13.1 8H13C11.9 8 11 7.1 11 6C11 4.9 11.9 4 13 4ZM8 4C9.1 4 10 4.9 10 6C10 6.3 9.8 6.5 9.5 6.5C9.2 6.5 9 6.3 9 6C9 5.4 8.6 5 8 5C7.4 5 7 5.4 7 6C7 6.6 7.4 7 8 7C9.1 7 9.9 7.8 10 8.9V10C10 11.1 9.1 12 8 12C6.9 12 6.1 11.2 6 10.1V9.5C6 9.2 6.2 9 6.5 9C6.7 9 6.9 9.2 7 9.4V10C7 10.6 7.4 11 8 11C8.5 11 8.9 10.6 9 10.1V9C9 8.5 8.6 8.1 8.1 8H8C6.9 8 6 7.1 6 6C6 4.9 6.9 4 8 4ZM3 4C4.1 4 4.9 4.8 5 5.9V6.5C5 6.8 4.8 7 4.5 7C4.3 7 4.1 6.8 4 6.6V6C4 5.4 3.6 5 3 5C2.5 5 2.1 5.4 2 5.9V10C2 10.6 2.4 11 3 11C3.5 11 3.9 10.6 4 10.1V9.5C4 9.2 4.2 9 4.5 9C4.7 9 4.9 9.2 5 9.4V10C5 11.1 4.1 12 3 12C1.9 12 1.1 11.2 1 10.1V6C1 4.9 1.9 4 3 4Z" fill="#E6E6E6"/>
</svg>
