<svg width="32" height="32" viewBox="0 0 32 32" fill="none" xmlns="http://www.w3.org/2000/svg">
<path d="M8.912 8.27H12.663V18.784C12.663 23.522 10.392 25.176 6.764 25.176C5.876 25.176 4.74 25.028 4 24.781L4.42 21.745C4.938 21.918 5.605 22.041 6.345 22.041C7.925 22.041 8.912 21.325 8.912 18.759V8.27ZM15.92 21.055C16.907 21.573 18.487 22.092 20.091 22.092C21.819 22.092 22.732 21.376 22.732 20.266C22.732 19.254 21.942 18.637 19.943 17.946C17.179 16.959 15.353 15.429 15.353 12.985C15.353 10.147 17.747 8 21.646 8C23.546 8 24.904 8.37 25.891 8.839L25.052 11.85C24.41 11.529 23.201 11.06 21.597 11.06C19.968 11.06 19.178 11.825 19.178 12.664C19.178 13.725 20.091 14.194 22.263 15.033C25.2 16.119 26.557 17.649 26.557 20.018C26.557 22.807 24.435 25.176 19.869 25.176C17.969 25.176 16.093 24.658 15.155 24.139L15.92 21.055Z" fill="#E6E6E6"/>
</svg>
