<svg width="32" height="32" viewBox="0 0 32 32" fill="none" xmlns="http://www.w3.org/2000/svg">
<path d="M9.63301 7.968H13.384V18.482C13.384 23.22 11.113 24.874 7.48501 24.874C6.59701 24.874 5.46101 24.726 4.72101 24.479L5.14101 21.443C5.65901 21.616 6.32601 21.739 7.06601 21.739C8.64601 21.739 9.63301 21.023 9.63301 18.457V7.968ZM16.641 20.753C17.628 21.271 19.208 21.79 20.812 21.79C22.54 21.79 23.453 21.074 23.453 19.964C23.453 18.952 22.663 18.335 20.664 17.644C17.9 16.657 16.074 15.127 16.074 12.683C16.074 9.845 18.468 7.698 22.367 7.698C24.267 7.698 25.625 8.068 26.612 8.537L25.773 11.548C25.131 11.227 23.922 10.758 22.318 10.758C20.689 10.758 19.899 11.523 19.899 12.362C19.899 13.423 20.812 13.892 22.984 14.731C25.921 15.817 27.278 17.347 27.278 19.716C27.278 22.505 25.156 24.874 20.59 24.874C18.69 24.874 16.814 24.356 15.876 23.837L16.641 20.753Z" fill="#111111"/>
</svg>
