<svg width="62" height="71" viewBox="0 0 62 71" fill="none" xmlns="http://www.w3.org/2000/svg">
<path d="M13.878 62.125H1.02411V20.6483H13.878V62.125ZM7.44415 14.9904C3.33388 14.9904 0 11.5791 0 7.46056C2.94195e-08 5.48227 0.784292 3.585 2.18034 2.18614C3.57639 0.787277 5.46984 0.00140381 7.44415 0.00140381C9.41846 0.00140381 11.3119 0.787277 12.708 2.18614C14.104 3.585 14.8883 5.48227 14.8883 7.46056C14.8883 11.5791 11.553 14.9904 7.44415 14.9904ZM61.9862 62.125H49.1599V41.9344C49.1599 37.1225 49.063 30.9516 42.4769 30.9516C35.7939 30.9516 34.7698 36.1795 34.7698 41.5877V62.125H21.9297V20.6483H34.2578V26.3061H34.4377C36.1537 23.0473 40.3457 19.6082 46.5996 19.6082C59.6086 19.6082 62 28.192 62 39.3412V62.125H61.9862Z" fill="#111111"/>
</svg>
