<svg width="57" height="57" viewBox="0 0 57 57" fill="none" xmlns="http://www.w3.org/2000/svg">
<path d="M0.89107 40.2821H2.72041V33.0578L5.5526 39.3558C5.88659 40.1182 6.34392 40.3876 7.24123 40.3876C8.13853 40.3876 8.5785 40.1182 8.91248 39.3558L11.7447 33.0578V40.2821H13.574V33.0698C13.574 32.3662 13.2926 32.0255 12.7119 31.8501C11.3221 31.4163 10.3896 31.7917 9.96743 32.73L7.18823 38.9457L4.49721 32.7296C4.09242 31.7917 3.14257 31.4163 1.75275 31.8496C1.17206 32.0255 0.890625 32.3658 0.890625 33.0693L0.89107 40.2821ZM15.0956 34.4013H16.9245V38.3815C16.9076 38.5975 16.994 39.1051 17.996 39.1211C18.5072 39.1292 21.9423 39.1211 21.9744 39.1211V34.3817H23.8077C23.8162 34.3817 23.806 40.8449 23.806 40.8717C23.8158 42.4659 21.8283 42.8119 20.9119 42.8386H15.1353V41.6078C15.1451 41.6078 20.9079 41.6091 20.9221 41.6073C22.1 41.4831 21.9606 40.8979 21.9601 40.7011V40.2211H18.0721C16.2633 40.2046 15.1108 39.415 15.0961 38.5066C15.0952 38.4233 15.1357 34.4414 15.0956 34.4013Z" fill="#111111"/>
<path d="M25.218 40.2821H30.4781C31.0939 40.2821 31.6924 40.1534 32.1671 39.9307C32.9585 39.5673 33.3454 39.0748 33.3454 38.4291V37.0923C33.3454 36.5646 32.9059 36.0716 32.0438 35.7439C31.5865 35.5675 31.0231 35.4745 30.4776 35.4745H28.2609C27.5221 35.4745 27.1703 35.2518 27.0826 34.7593C27.0652 34.7005 27.0652 34.6538 27.0652 34.595V33.7623C27.0652 33.7155 27.0652 33.6683 27.0826 33.61C27.1703 33.2346 27.364 33.129 28.0151 33.0702L28.191 33.0587H33.4158V31.8394H28.2791C27.5404 31.8394 27.1534 31.8862 26.8016 31.9917C25.711 32.3319 25.2354 32.8712 25.2354 33.8095V34.8764C25.2354 35.6976 26.1683 36.4012 27.7336 36.5655C27.91 36.5766 28.0854 36.5891 28.2613 36.5891H30.1615C30.2318 36.5891 30.3022 36.5891 30.3552 36.6002C30.9359 36.647 31.1817 36.753 31.358 36.9636C31.4636 37.0691 31.4983 37.1751 31.4983 37.2918V38.3592C31.4983 38.4879 31.4106 38.6522 31.2347 38.7929C31.0766 38.9337 30.8125 39.0276 30.4607 39.0512L30.267 39.0628H25.218V40.2821ZM44.7588 38.1597C44.7588 39.4142 45.6913 40.1177 47.5732 40.2589C47.7491 40.2705 47.925 40.2821 48.1009 40.2821H52.8684V39.0628H48.0661C46.9929 39.0628 46.5886 38.7929 46.5886 38.1477V31.8385H44.7593L44.7588 38.1597ZM34.5131 38.2229V33.8745C34.5131 32.7701 35.2888 32.0999 36.8224 31.8884C36.981 31.8648 37.1578 31.8532 37.3159 31.8532H40.7888C40.9652 31.8532 41.1237 31.8648 41.2996 31.8884C42.8333 32.0999 43.6095 32.7696 43.6095 33.8745V38.2229C43.6095 39.1198 43.2799 39.599 42.5207 39.9116L44.3233 41.5383H42.1987L40.7408 40.222L39.273 40.315H37.3159C36.981 40.315 36.6287 40.2683 36.2409 40.1623C35.0773 39.8452 34.5131 39.2338 34.5131 38.2229ZM36.4876 38.1174C36.4876 38.1762 36.5049 38.2354 36.5228 38.3058C36.6283 38.8112 37.1048 39.0931 37.8271 39.0931H39.489L37.9624 37.7148H40.087L41.4181 38.9172C41.6639 38.7858 41.8251 38.5863 41.8816 38.3294C41.899 38.2706 41.899 38.2118 41.899 38.153V33.9813C41.899 33.9346 41.899 33.8754 41.8816 33.8166C41.7757 33.3463 41.2996 33.0765 40.5947 33.0765H37.8266C37.0162 33.0765 36.4871 33.4292 36.4871 33.9813L36.4876 38.1174Z" fill="#111111"/>
<path d="M54.4777 29.8146C53.3533 29.7838 52.4943 29.8885 51.7596 30.198C51.5507 30.2861 51.2181 30.2884 51.1842 30.5498C51.2987 30.6704 51.3165 30.8499 51.4078 30.9978C51.5832 31.2814 51.8793 31.6617 52.1434 31.8608C52.4315 32.0785 52.729 32.3119 53.0389 32.5007C53.5889 32.8364 54.2034 33.0279 54.7338 33.3637C55.046 33.5623 55.3559 33.8117 55.6609 34.0357C55.8119 34.1457 55.9125 34.318 56.1089 34.387V34.3554C56.0061 34.2245 55.9793 34.0446 55.8849 33.9074L55.469 33.4915C55.0624 32.9518 54.5468 32.4784 53.9977 32.0848C53.5604 31.7708 52.5816 31.3464 52.399 30.8374L52.367 30.8058C52.6769 30.7706 53.0403 30.6584 53.3262 30.5818C53.8071 30.4527 54.2368 30.4861 54.7334 30.3578L55.4049 30.1655V30.0381C55.1542 29.7807 54.9747 29.4396 54.7013 29.2067C53.9857 28.5971 53.2037 27.9879 52.399 27.4793C51.9528 27.1979 51.4011 27.0149 50.9277 26.7762C50.7692 26.6956 50.4895 26.6542 50.384 26.5201C50.1351 26.2035 50.0001 25.8023 49.8082 25.4331C49.4074 24.6605 49.0129 23.8162 48.6571 23.0026C48.4148 22.4482 48.2563 21.9014 47.9539 21.4039C46.5017 19.0166 44.9387 17.5756 42.5175 16.1595C42.0023 15.858 41.382 15.7396 40.7269 15.5841L39.6715 15.52C39.4573 15.4305 39.2338 15.1678 39.0321 15.0404C38.2296 14.5337 36.1723 13.4315 35.5782 14.881C35.2033 15.7957 36.1393 16.6881 36.4738 17.1516C36.7084 17.4767 37.0095 17.841 37.1773 18.2066C37.2878 18.4471 37.3065 18.688 37.4013 18.9422C37.6333 19.5684 37.836 20.2501 38.1366 20.8286C38.2884 21.1216 38.4563 21.4302 38.6482 21.6921C38.7658 21.8524 38.968 21.9236 38.9996 22.1717C38.8023 22.4478 38.7907 22.877 38.6798 23.2266C38.1802 24.8026 38.3686 26.7615 39.0958 27.9278C39.3189 28.2862 39.8443 29.054 40.5666 28.7592C41.1985 28.5018 41.0578 27.7042 41.2386 27.0002C41.2796 26.8412 41.2542 26.7236 41.3343 26.6168V26.6488L41.9101 27.8C42.3363 28.4862 43.092 29.2027 43.7328 29.6868C44.065 29.9375 44.3268 30.3716 44.7561 30.5181V30.4856H44.7245C44.6408 30.3561 44.5112 30.3026 44.4043 30.198C44.1541 29.9526 43.8757 29.648 43.6691 29.3666C43.0862 28.5757 42.5714 27.7096 42.1021 26.8082C41.8781 26.3781 41.6835 25.9034 41.4947 25.4652C41.4216 25.2964 41.4225 25.0408 41.2711 24.954C41.0636 25.2746 40.7594 25.5342 40.5991 25.9132C40.3435 26.5188 40.3106 27.2576 40.2157 28.0235L40.1516 28.0551C39.7058 27.9478 39.5495 27.4891 39.3839 27.0959C38.9653 26.1015 38.8873 24.4997 39.2561 23.3549C39.3514 23.0583 39.782 22.1253 39.6074 21.8515C39.5241 21.5785 39.2494 21.4209 39.0962 21.2116C38.9061 20.9537 38.7159 20.6144 38.5845 20.316C38.2416 19.5408 38.0818 18.6702 37.7215 17.886C37.5487 17.511 37.2575 17.1321 37.0179 16.799C36.753 16.4294 36.4559 16.1577 36.2502 15.7115C36.1772 15.553 36.0779 15.2987 36.1861 15.1357C36.2204 15.0257 36.2698 14.9799 36.3785 14.9438C36.5637 14.8008 37.0803 14.9914 37.2735 15.0716C37.7865 15.2849 38.2145 15.4875 38.6491 15.7752C38.8575 15.9137 39.0681 16.1809 39.3206 16.2548H39.6083C40.0585 16.3581 40.5631 16.2864 40.9834 16.4142C41.7271 16.6404 42.3933 16.9918 42.998 17.3739C44.8412 18.5379 46.3477 20.1945 47.379 22.1708C47.5447 22.4892 47.6168 22.7924 47.7624 23.13C48.0572 23.8104 48.4286 24.5109 48.7216 25.1766C49.0142 25.8406 49.2996 26.5108 49.7133 27.0634C49.9307 27.3538 50.7705 27.5096 51.1521 27.6708C51.4198 27.7839 51.858 27.9019 52.1114 28.0542C52.5954 28.3464 53.0648 28.6941 53.5185 29.0139C53.7452 29.1751 54.443 29.5255 54.4777 29.8146ZM40.1837 17.6312C39.9494 17.6268 39.7833 17.6571 39.6079 17.6954V17.727H39.6399C39.7517 17.9572 39.949 18.1051 40.0875 18.3028L40.4076 18.9743L40.4393 18.9427C40.6374 18.8033 40.7278 18.5802 40.7269 18.2391C40.6472 18.1554 40.6356 18.0507 40.5671 17.9514C40.4762 17.8178 40.299 17.743 40.1837 17.6312Z" fill="#111111"/>
</svg>
