<svg width="32" height="32" viewBox="0 0 32 32" fill="none" xmlns="http://www.w3.org/2000/svg">
<path d="M10.372 13.069H6.405L4.69 21.753H6.727L7.156 19.502H9.086C10.908 19.609 12.946 18.108 12.946 15.535C12.946 14.034 12.088 13.176 10.373 13.069H10.372ZM8.871 17.894H7.584L8.12 14.678H9.514C10.264 14.678 10.801 15 10.801 15.643C10.694 17.466 9.836 17.787 8.871 17.894ZM17.555 13.069H15.625L16.054 10.818H14.017L12.302 19.502H14.339L15.304 14.678H16.912C17.663 14.678 17.663 15 17.555 15.536L16.805 19.503H18.949L19.699 15.107C19.913 14.035 19.27 13.176 17.555 13.069ZM24.738 13.069H20.771L19.056 21.753H21.093L21.522 19.502H23.452C25.275 19.609 27.312 18.108 27.312 15.535C27.312 14.034 26.453 13.176 24.738 13.069ZM23.237 17.894H21.95L22.486 14.678H23.88C24.631 14.678 25.167 15 25.167 15.643C25.06 17.466 24.202 17.787 23.237 17.894Z" fill="#111111"/>
</svg>

