<svg width="32" height="32" viewBox="0 0 32 32" fill="none" xmlns="http://www.w3.org/2000/svg">
<g clip-path="url(#clip0_2016_39)">
<path d="M23.4882 9.14V12.1063C23.4759 13.215 23.0342 14.2758 22.2559 15.0656C21.4777 15.8554 20.4236 16.3128 19.3152 16.3415H12.6431C11.7534 16.3592 10.9059 16.7242 10.2817 17.3585C9.65762 17.9928 9.30637 18.8461 9.3031 19.736V26.0967C9.3031 27.9067 10.8773 28.9718 12.6431 29.4912C14.8153 30.1705 17.143 30.1705 19.3152 29.4912C20.9969 29.0043 22.6552 28.0244 22.6552 26.0967V23.55H15.983V22.7014H25.9951C27.9365 22.7014 28.6599 21.3472 29.3351 19.3147C30.0205 17.1036 30.0205 14.7369 29.3351 12.5258C28.8551 10.5931 27.939 9.1391 25.9951 9.1391L23.4882 9.14ZM19.7356 25.2476C19.9884 25.2437 20.2366 25.3151 20.4486 25.4528C20.6606 25.5905 20.8269 25.7881 20.9261 26.0206C21.0254 26.2531 21.0532 26.5099 21.006 26.7583C20.9588 27.0066 20.8387 27.2353 20.6611 27.4152C20.4834 27.595 20.2562 27.7179 20.0085 27.7682C19.7607 27.8185 19.5036 27.7939 19.2699 27.6975C19.0362 27.6011 18.8365 27.4373 18.6962 27.227C18.5559 27.0167 18.4814 26.7694 18.4822 26.5166C18.4811 26.351 18.5127 26.1867 18.5751 26.0333C18.6375 25.8798 18.7295 25.7402 18.8459 25.6224C18.9623 25.5045 19.1008 25.4108 19.2535 25.3464C19.4061 25.2821 19.57 25.2486 19.7356 25.2476Z" fill="#111111"/>
<path d="M15.8351 2C14.7653 2.00115 13.6976 2.0923 12.6431 2.2725C9.81631 2.7719 9.30311 3.8172 9.30311 5.7448V8.2909H15.9831V9.14H6.79621C5.81301 9.12198 4.85506 9.45194 4.0915 10.0716C3.32795 10.6913 2.80791 11.5608 2.62321 12.5267C1.99616 14.7462 1.99616 17.0961 2.62321 19.3156C3.09801 21.2932 4.23201 22.7023 6.17321 22.7023H8.47001V19.65C8.49438 18.553 8.94257 17.5081 9.72057 16.7344C10.4986 15.9607 11.5459 15.5183 12.643 15.5H19.3151C19.7574 15.4967 20.1946 15.4062 20.6019 15.2338C21.0092 15.0614 21.3785 14.8103 21.6887 14.4951C21.9989 14.1798 22.2439 13.8065 22.4097 13.3965C22.5755 12.9865 22.6589 12.5479 22.6551 12.1056V5.745C22.599 4.86469 22.2327 4.03276 21.6212 3.39703C21.0097 2.7613 20.1926 2.36293 19.3151 2.2727C18.1648 2.08463 17.0007 1.99341 15.8351 2ZM12.2226 4.0478C12.475 4.04389 12.7229 4.11513 12.9348 4.25246C13.1467 4.38979 13.3129 4.58701 13.4124 4.81905C13.5119 5.05109 13.5401 5.30747 13.4936 5.55561C13.447 5.80375 13.3277 6.03243 13.1508 6.2126C12.9739 6.39277 12.7475 6.51628 12.5003 6.56744C12.253 6.61859 11.9962 6.59509 11.7623 6.4999C11.5285 6.40472 11.3282 6.24216 11.187 6.03288C11.0458 5.82361 10.97 5.57707 10.9692 5.3246C10.9667 4.98926 11.0972 4.6666 11.3322 4.42729C11.5671 4.18798 11.8873 4.05152 12.2226 4.0478Z" fill="#111111"/>
</g>
<defs>
<clipPath id="clip0_2016_39">
<rect width="32" height="32" fill="white"/>
</clipPath>
</defs>
</svg>
